PathFileType	4	(X/Y/Z)	/tmp/tmpl7bk8b07//results/MarkerData/Run_5.trc
DataRate	CameraRate	NumFrames	NumMarkers	Units	OrigDataRate	OrigDataStartFrame	OrigNumFrames
100	100	9	42	m	100	124	499
Frame#	Time	C7			CLAV			LACR			LASI			LCAL			LFAradius			LFAsuperior			LFAulna			LLEL			LMEL			LMT5			LPSI			LTB1			LTB2			LTB3			LTH1			LTH2			LTH3			LTOE			LUA1			LUA2			LUA3			RACR			RASI			RCAL			RFAradius			RFAsuperior			RFAulna			RLEL			RMEL			RMT5			RPSI			RTB1			RTB2			RTB3			RTH1			RTH2			RTH3			RTOE			RUA1			RUA2			RUA3		
		X1	Y1	Z1	X2	Y2	Z2	X3	Y3	Z3	X4	Y4	Z4	X5	Y5	Z5	X6	Y6	Z6	X7	Y7	Z7	X8	Y8	Z8	X9	Y9	Z9	X10	Y10	Z10	X11	Y11	Z11	X12	Y12	Z12	X13	Y13	Z13	X14	Y14	Z14	X15	Y15	Z15	X16	Y16	Z16	X17	Y17	Z17	X18	Y18	Z18	X19	Y19	Z19	X20	Y20	Z20	X21	Y21	Z21	X22	Y22	Z22	X23	Y23	Z23	X24	Y24	Z24	X25	Y25	Z25	X26	Y26	Z26	X27	Y27	Z27	X28	Y28	Z28	X29	Y29	Z29	X30	Y30	Z30	X31	Y31	Z31	X32	Y32	Z32	X33	Y33	Z33	X34	Y34	Z34	X35	Y35	Z35	X36	Y36	Z36	X37	Y37	Z37	X38	Y38	Z38	X39	Y39	Z39	X40	Y40	Z40	X41	Y41	Z41	X42	Y42	Z42

125	1.27	0.760567	1.48497	-0.356543	0.85936	1.3957	-0.295118	0.860727	1.4354	-0.500254	0.821006	0.983873	-0.458546	0.242293	0.543812	-0.403038	1.02514	1.11657	-0.454933	0.931085	1.11454	-0.586361	1.04094	1.05358	-0.487266	0.83609	1.11999	-0.644762	0.783304	1.10736	-0.581593	0.107153	0.410139	-0.457079	0.651184	1.01272	-0.377569	0.487419	0.415639	-0.399417	0.406243	0.461146	-0.466593	0.333472	0.427343	-0.4016	0.708418	0.792256	-0.498412	0.73242	0.650171	-0.474351	0.644583	0.557498	-0.463375	0.116917	0.353733	-0.369788	0.844673	1.34594	-0.584644	0.785009	1.26686	-0.577364	0.817106	1.20459	-0.623878	0.784984	1.47349	-0.179284	0.810062	0.998205	-0.198794	0.95852	0.0902684	-0.316737	0.706538	1.09525	-0.039495	0.586736	1.19839	-0.0577139	0.64921	1.051	-0.0443167	0.517119	1.27292	-0.101054	0.534597	1.25038	-0.17879	1.13254	0.0795568	-0.235008	0.642944	1.00635	-0.274645	1.02028	0.402529	-0.282307	1.00509	0.336495	-0.222855	1.03681	0.2352	-0.295139	0.765386	0.797652	-0.146023	0.890489	0.733456	-0.159701	0.882603	0.602827	-0.198759	1.17871	0.112973	-0.322609	0.690856	1.43426	-0.118649	0.621293	1.38842	-0.175891	0.602217	1.34495	-0.116512
126	1.28	0.76126	1.47856	-0.355046	0.86128	1.38845	-0.295914	0.860716	1.42776	-0.501004	0.821172	0.977415	-0.459297	0.276238	0.554411	-0.398236	1.01794	1.09327	-0.45967	0.920318	1.10094	-0.589039	1.0288	1.03079	-0.493812	0.824084	1.11257	-0.644463	0.77311	1.10191	-0.580804	0.135035	0.432106	-0.461665	0.649057	1.00232	-0.378568	0.511484	0.411534	-0.401838	0.432717	0.460125	-0.468516	0.360006	0.43312	-0.401569	0.712965	0.782129	-0.498336	0.743441	0.641523	-0.476878	0.661837	0.545211	-0.465426	0.139305	0.370715	-0.377212	0.840357	1.33763	-0.585151	0.778367	1.26014	-0.576626	0.808428	1.19726	-0.623429	0.788774	1.46571	-0.178355	0.808665	0.992911	-0.197882	0.918476	0.093246	-0.321299	0.723022	1.08865	-0.0357989	0.598832	1.18725	-0.0497265	0.666953	1.04267	-0.0383708	0.525914	1.25954	-0.0918243	0.541306	1.23759	-0.170192	1.09087	0.0627939	-0.236188	0.64153	0.998342	-0.2762	1.00842	0.391406	-0.283046	0.98703	0.326305	-0.226881	1.01137	0.222425	-0.297302	0.763618	0.792348	-0.149119	0.889729	0.72982	-0.160983	0.876907	0.596652	-0.19995	1.14237	0.08482	-0.325837	0.69652	1.42419	-0.11496	0.624585	1.37769	-0.168977	0.609029	1.33279	-0.108961
127	1.29	0.76152	1.47209	-0.353627	0.862764	1.38118	-0.297014	0.859958	1.42058	-0.502187	0.821253	0.969865	-0.459439	0.309136	0.561701	-0.393635	1.00929	1.06796	-0.465779	0.908271	1.08686	-0.592639	1.01465	1.00661	-0.502271	0.810875	1.10551	-0.64403	0.761982	1.09657	-0.579912	0.167975	0.445822	-0.466226	0.64699	0.991761	-0.380975	0.538698	0.406172	-0.404411	0.462257	0.458562	-0.470376	0.389806	0.437055	-0.401676	0.71771	0.771187	-0.497338	0.755537	0.633077	-0.479879	0.680947	0.53233	-0.467181	0.168466	0.380853	-0.384146	0.834982	1.32964	-0.585829	0.770686	1.25341	-0.575721	0.798883	1.19024	-0.622823	0.792137	1.45858	-0.177459	0.806996	0.987048	-0.196418	0.874176	0.0961147	-0.324453	0.741159	1.08194	-0.0318632	0.612618	1.17537	-0.0410822	0.686404	1.03412	-0.0320189	0.536232	1.24506	-0.0815637	0.549681	1.22351	-0.160528	1.0447	0.0548848	-0.23693	0.640003	0.99115	-0.278513	0.995107	0.381979	-0.283598	0.96662	0.318183	-0.230602	0.982015	0.213019	-0.298567	0.760278	0.787486	-0.150913	0.885924	0.723774	-0.161163	0.87032	0.590243	-0.201458	1.09965	0.067672	-0.327821	0.702671	1.41339	-0.111039	0.628301	1.36587	-0.160926	0.617049	1.31953	-0.100324
128	1.3	0.761541	1.4663	-0.352446	0.863798	1.37462	-0.298325	0.858217	1.41454	-0.503901	0.821029	0.961173	-0.458637	0.34228	0.565633	-0.390659	0.998715	1.04134	-0.473229	0.894842	1.07281	-0.596725	0.998225	0.98171	-0.512605	0.796987	1.09948	-0.643368	0.750052	1.09183	-0.578788	0.204057	0.451546	-0.470461	0.64531	0.982456	-0.384604	0.568961	0.400037	-0.406908	0.494948	0.456886	-0.471997	0.422288	0.439039	-0.402267	0.723925	0.760447	-0.495719	0.769357	0.625926	-0.48308	0.702422	0.520598	-0.468348	0.202544	0.384653	-0.389802	0.82878	1.32294	-0.586568	0.762341	1.24771	-0.57441	0.788812	1.18436	-0.621855	0.794967	1.45275	-0.17672	0.804868	0.981719	-0.19411	0.827515	0.0984954	-0.326132	0.760893	1.0755	-0.0283061	0.628774	1.1635	-0.0325276	0.707575	1.02595	-0.0256437	0.548632	1.2301	-0.0703753	0.559948	1.20866	-0.149967	0.997241	0.0547305	-0.237494	0.638287	0.984899	-0.281104	0.979303	0.375599	-0.284948	0.944318	0.313314	-0.232979	0.949567	0.208577	-0.299391	0.755585	0.785008	-0.150893	0.879349	0.717071	-0.160186	0.864274	0.585564	-0.20267	1.05296	0.0616019	-0.3286	0.709367	1.40278	-0.1069	0.632966	1.35351	-0.15197	0.626876	1.30617	-0.0909652
129	1.31	0.761425	1.46177	-0.35161	0.864489	1.36946	-0.299796	0.855332	1.41007	-0.506104	0.820219	0.951741	-0.457163	0.376478	0.565898	-0.390238	0.985737	1.01444	-0.481939	0.880009	1.05976	-0.600576	0.979249	0.957238	-0.524569	0.782903	1.09507	-0.642406	0.737574	1.08831	-0.577159	0.242242	0.449737	-0.47424	0.644224	0.976036	-0.388643	0.602037	0.394267	-0.408991	0.53055	0.455032	-0.473497	0.45683	0.438928	-0.403467	0.732028	0.751596	-0.494182	0.785316	0.621098	-0.485743	0.726724	0.512266	-0.469165	0.239747	0.382673	-0.393678	0.822103	1.31805	-0.587339	0.753918	1.24386	-0.572601	0.778518	1.18014	-0.620447	0.797374	1.44844	-0.176309	0.802493	0.978055	-0.191096	0.779807	0.100501	-0.326701	0.782077	1.06988	-0.0257343	0.64777	1.15267	-0.0246631	0.730539	1.01883	-0.019644	0.563625	1.21552	-0.0584982	0.572106	1.19384	-0.138522	0.949304	0.0578173	-0.237638	0.636631	0.979927	-0.283512	0.959871	0.37176	-0.28737	0.919994	0.311009	-0.233741	0.914535	0.207495	-0.300419	0.750366	0.784985	-0.15006	0.871687	0.711618	-0.159332	0.857611	0.582754	-0.203371	1.00446	0.0613012	-0.328568	0.716461	1.39354	-0.102732	0.638991	1.34134	-0.142775	0.638664	1.29399	-0.0815553
130	1.32	0.761152	1.45869	-0.351148	0.864936	1.3661	-0.3015	0.851404	1.40722	-0.508598	0.818739	0.943028	-0.455839	0.410894	0.562544	-0.392375	0.970108	0.988786	-0.491643	0.863981	1.049	-0.603643	0.957708	0.934955	-0.537676	0.768786	1.09265	-0.641208	0.724902	1.08665	-0.574776	0.282098	0.440787	-0.477623	0.643659	0.973174	-0.392024	0.637634	0.389996	-0.410288	0.568561	0.452532	-0.475076	0.492886	0.436734	-0.405177	0.741164	0.745826	-0.493287	0.803467	0.619182	-0.487068	0.753965	0.50855	-0.470125	0.278999	0.375136	-0.395771	0.815266	1.31498	-0.588198	0.745958	1.24201	-0.570531	0.768131	1.17771	-0.618785	0.799655	1.4455	-0.17636	0.800423	0.976454	-0.188142	0.731641	0.102181	-0.326577	0.804555	1.06579	-0.0244906	0.669382	1.14378	-0.0177407	0.755276	1.01338	-0.0145423	0.581252	1.20248	-0.0463345	0.585891	1.18011	-0.126198	0.900311	0.0598939	-0.237106	0.635395	0.976597	-0.285457	0.936303	0.3685	-0.290154	0.892981	0.308986	-0.233783	0.876988	0.206416	-0.30199	0.745176	0.78587	-0.149524	0.863983	0.707784	-0.159697	0.847433	0.58018	-0.203997	0.95538	0.0615863	-0.328032	0.72363	1.3866	-0.0989832	0.646468	1.33021	-0.134433	0.651822	1.28415	-0.0729224
131	1.33	0.760681	1.45699	-0.351024	0.865182	1.36449	-0.303526	0.846869	1.40576	-0.511141	0.816961	0.93728	-0.455367	0.443599	0.555931	-0.396326	0.951933	0.966454	-0.501907	0.846989	1.04155	-0.60612	0.934008	0.91685	-0.551306	0.75427	1.09243	-0.640048	0.712263	1.08738	-0.57175	0.323296	0.425216	-0.480727	0.643309	0.973038	-0.393973	0.675368	0.387901	-0.410548	0.60814	0.449013	-0.476674	0.530017	0.432605	-0.407178	0.749681	0.743087	-0.492788	0.823422	0.620534	-0.486912	0.783697	0.509056	-0.471447	0.320106	0.36209	-0.396579	0.808376	1.31349	-0.589226	0.73859	1.2418	-0.56861	0.757417	1.17713	-0.617238	0.802107	1.44377	-0.17692	0.799189	0.976318	-0.186225	0.683186	0.103484	-0.326107	0.828116	1.06409	-0.0245234	0.692528	1.13748	-0.0116805	0.781468	1.01028	-0.0108348	0.600771	1.19207	-0.034462	0.600606	1.16865	-0.113308	0.850234	0.059549	-0.23616	0.634837	0.975092	-0.286839	0.908781	0.363928	-0.292348	0.862605	0.305062	-0.234383	0.836917	0.203254	-0.30407	0.739984	0.786347	-0.149329	0.855671	0.704442	-0.161154	0.831865	0.57642	-0.205052	0.906116	0.0607679	-0.327175	0.730625	1.3823	-0.0960992	0.655075	1.32097	-0.127886	0.665303	1.27727	-0.0657057
132	1.34	0.760059	1.45653	-0.351176	0.865273	1.3643	-0.305855	0.842351	1.40547	-0.513582	0.815557	0.936186	-0.455778	0.473045	0.546255	-0.401132	0.931588	0.949457	-0.512322	0.828928	1.03781	-0.608987	0.908824	0.904503	-0.564827	0.73859	1.09459	-0.639297	0.699432	1.09078	-0.56872	0.365495	0.40395	-0.483553	0.642881	0.974091	-0.394285	0.714673	0.388208	-0.409741	0.648053	0.444713	-0.477846	0.56785	0.42673	-0.40921	0.756289	0.742486	-0.491724	0.844336	0.625619	-0.485966	0.814936	0.512896	-0.472847	0.363471	0.3439	-0.396844	0.8013	1.31357	-0.590462	0.731342	1.24303	-0.567021	0.745709	1.17867	-0.616076	0.80487	1.44327	-0.177997	0.79902	0.976634	-0.185843	0.634542	0.104621	-0.325626	0.852275	1.06568	-0.0255542	0.715724	1.13418	-0.00634491	0.808448	1.01031	-0.0087089	0.620875	1.18502	-0.0235779	0.61524	1.16036	-0.100648	0.799926	0.0579418	-0.235319	0.635058	0.97539	-0.287651	0.877733	0.35745	-0.293634	0.828753	0.298884	-0.23609	0.794669	0.198635	-0.306365	0.734566	0.786455	-0.148859	0.845628	0.700404	-0.162909	0.811826	0.571758	-0.206392	0.856746	0.0597403	-0.326156	0.737497	1.38049	-0.0941945	0.664176	1.31447	-0.123215	0.678272	1.27336	-0.0601127
133	1.35	0.759413	1.4573	-0.35157	0.865323	1.36529	-0.30839	0.83833	1.40626	-0.515895	0.814955	0.939563	-0.456623	0.499058	0.533282	-0.405992	0.909606	0.939105	-0.522704	0.809352	1.03768	-0.613248	0.882765	0.898578	-0.577634	0.721059	1.0995	-0.63917	0.685688	1.09696	-0.566529	0.408571	0.378318	-0.485915	0.642371	0.975423	-0.393247	0.754811	0.39093	-0.408043	0.686962	0.44045	-0.478064	0.606066	0.419279	-0.410994	0.761034	0.743343	-0.4894	0.865023	0.634888	-0.485151	0.846319	0.520106	-0.473808	0.409643	0.321499	-0.397144	0.793782	1.31551	-0.59188	0.723396	1.24621	-0.565506	0.73223	1.18295	-0.615264	0.807943	1.44426	-0.179605	0.799837	0.976816	-0.186737	0.585813	0.106286	-0.325331	0.876144	1.07122	-0.0273906	0.737818	1.13422	-0.00183036	0.835358	1.01422	-0.00799151	0.640336	1.18148	-0.0143065	0.629035	1.15554	-0.0893046	0.750022	0.0567286	-0.234818	0.63608	0.977342	-0.287931	0.843519	0.349778	-0.294403	0.791941	0.292126	-0.238357	0.750954	0.194687	-0.308385	0.728877	0.786988	-0.148018	0.833683	0.695575	-0.164583	0.790036	0.567598	-0.207311	0.807209	0.0594706	-0.325139	0.744542	1.38084	-0.0930692	0.673073	1.31131	-0.119609	0.690552	1.27212	-0.0559707
